<?xml version="1.0" standalone="no"?><svg xmlns="http://www.w3.org/2000/svg" viewBox="0 0 1440 320"><path fill="#a2d9ff" fillOpacity="0.5" d="M0,224L21.8,202.7C43.6,181,87,139,131,122.7C174.5,107,218,117,262,101.3C305.5,85,349,43,393,42.7C436.4,43,480,85,524,90.7C567.3,96,611,64,655,53.3C698.2,43,742,53,785,58.7C829.1,64,873,64,916,90.7C960,117,1004,171,1047,170.7C1090.9,171,1135,117,1178,117.3C1221.8,117,1265,171,1309,170.7C1352.7,171,1396,117,1418,90.7L1440,64L1440,0L1418.2,0C1396.4,0,1353,0,1309,0C1265.5,0,1222,0,1178,0C1134.5,0,1091,0,1047,0C1003.6,0,960,0,916,0C872.7,0,829,0,785,0C741.8,0,698,0,655,0C610.9,0,567,0,524,0C480,0,436,0,393,0C349.1,0,305,0,262,0C218.2,0,175,0,131,0C87.3,0,44,0,22,0L0,0Z"></path></svg>