<?xml version="1.0" standalone="no"?><svg xmlns="http://www.w3.org/2000/svg" viewBox="0 0 1440 320"><path fill="#0099ff" fill-opacity="1" d="M0,224L30,202.7C60,181,120,139,180,133.3C240,128,300,160,360,186.7C420,213,480,235,540,202.7C600,171,660,85,720,85.3C780,85,840,171,900,176C960,181,1020,107,1080,96C1140,85,1200,139,1260,170.7C1320,203,1380,213,1410,218.7L1440,224L1440,320L1410,320C1380,320,1320,320,1260,320C1200,320,1140,320,1080,320C1020,320,960,320,900,320C840,320,780,320,720,320C660,320,600,320,540,320C480,320,420,320,360,320C300,320,240,320,180,320C120,320,60,320,30,320L0,320Z"></path></svg>